<svg width="89" height="41" viewBox="0 0 89 41" fill="none" xmlns="http://www.w3.org/2000/svg">
<rect x="0.0585938" width="88.0795" height="40.0361" rx="4.00361" fill="#FF3F98"/>
<path d="M12.6425 19.5444C12.6425 17.8789 13.0028 16.3975 13.7235 15.1004C14.4441 13.7872 15.445 12.7703 16.7262 12.0496C18.0233 11.3129 19.4887 10.9446 21.1221 10.9446C23.1239 10.9446 24.8375 11.4731 26.2628 12.53C27.6881 13.587 28.6409 15.0283 29.1214 16.8539H24.6053C24.269 16.1493 23.7885 15.6128 23.164 15.2445C22.5554 14.8762 21.8588 14.692 21.0741 14.692C19.8089 14.692 18.784 15.1324 17.9993 16.0132C17.2146 16.894 16.8222 18.071 16.8222 19.5444C16.8222 21.0177 17.2146 22.1948 17.9993 23.0756C18.784 23.9564 19.8089 24.3967 21.0741 24.3967C21.8588 24.3967 22.5554 24.2126 23.164 23.8442C23.7885 23.4759 24.269 22.9394 24.6053 22.2348H29.1214C28.6409 24.0604 27.6881 25.5017 26.2628 26.5587C24.8375 27.5996 23.1239 28.1201 21.1221 28.1201C19.4887 28.1201 18.0233 27.7598 16.7262 27.0391C15.445 26.3025 14.4441 25.2856 13.7235 23.9884C13.0028 22.6912 12.6425 21.2099 12.6425 19.5444ZM30.8201 21.2739C30.8201 19.8967 31.0764 18.6876 31.5888 17.6467C32.1173 16.6057 32.8299 15.805 33.7268 15.2445C34.6236 14.684 35.6245 14.4037 36.7295 14.4037C37.6743 14.4037 38.4991 14.5959 39.2037 14.9802C39.9243 15.3646 40.4768 15.8691 40.8612 16.4936V14.5959H44.9689V28H40.8612V26.1023C40.4608 26.7269 39.9003 27.2313 39.1797 27.6157C38.475 28 37.6503 28.1922 36.7054 28.1922C35.6165 28.1922 34.6236 27.9119 33.7268 27.3514C32.8299 26.7749 32.1173 25.9662 31.5888 24.9252C31.0764 23.8683 30.8201 22.6512 30.8201 21.2739ZM40.8612 21.298C40.8612 20.273 40.5729 19.4643 39.9964 18.8718C39.4359 18.2792 38.7473 17.983 37.9305 17.983C37.1138 17.983 36.4172 18.2792 35.8407 18.8718C35.2802 19.4483 34.9999 20.249 34.9999 21.2739C34.9999 22.2989 35.2802 23.1156 35.8407 23.7241C36.4172 24.3167 37.1138 24.6129 37.9305 24.6129C38.7473 24.6129 39.4359 24.3167 39.9964 23.7241C40.5729 23.1316 40.8612 22.3229 40.8612 21.298ZM52.0484 16.8299C52.5288 16.0933 53.1293 15.5167 53.85 15.1004C54.5706 14.668 55.3714 14.4518 56.2521 14.4518V18.7997H55.1231C54.0982 18.7997 53.3295 19.0239 52.817 19.4723C52.3046 19.9047 52.0484 20.6734 52.0484 21.7784V28H47.9406V14.5959H52.0484V16.8299ZM57.3988 21.2739C57.3988 19.8967 57.655 18.6876 58.1675 17.6467C58.696 16.6057 59.4086 15.805 60.3054 15.2445C61.2022 14.684 62.2031 14.4037 63.3081 14.4037C64.1889 14.4037 64.9897 14.5879 65.7103 14.9562C66.447 15.3246 67.0235 15.821 67.4399 16.4456V10.224H71.5476V28H67.4399V26.0783C67.0555 26.7188 66.503 27.2313 65.7824 27.6157C65.0777 28 64.253 28.1922 63.3081 28.1922C62.2031 28.1922 61.2022 27.9119 60.3054 27.3514C59.4086 26.7749 58.696 25.9662 58.1675 24.9252C57.655 23.8683 57.3988 22.6512 57.3988 21.2739ZM67.4399 21.298C67.4399 20.273 67.1516 19.4643 66.5751 18.8718C66.0146 18.2792 65.326 17.983 64.5092 17.983C63.6925 17.983 62.9959 18.2792 62.4193 18.8718C61.8588 19.4483 61.5786 20.249 61.5786 21.2739C61.5786 22.2989 61.8588 23.1156 62.4193 23.7241C62.9959 24.3167 63.6925 24.6129 64.5092 24.6129C65.326 24.6129 66.0146 24.3167 66.5751 23.7241C67.1516 23.1316 67.4399 22.3229 67.4399 21.298Z" fill="white"/>
</svg>
