<svg width="89" height="42" viewBox="0 0 89 42" fill="none" xmlns="http://www.w3.org/2000/svg">
<rect x="0.0585938" y="0.26709" width="88.0795" height="40.0361" rx="4.00361" fill="#333333"/>
<path d="M11.1411 19.8115C11.1411 18.146 11.5014 16.6646 12.2221 15.3674C12.9427 14.0543 13.9437 13.0373 15.2248 12.3167C16.522 11.58 17.9873 11.2117 19.6208 11.2117C21.6226 11.2117 23.3361 11.7402 24.7614 12.7971C26.1867 13.8541 27.1396 15.2954 27.62 17.121H23.1039C22.7676 16.4164 22.2872 15.8799 21.6626 15.5116C21.0541 15.1432 20.3574 14.9591 19.5727 14.9591C18.3076 14.9591 17.2827 15.3995 16.498 16.2803C15.7132 17.1611 15.3209 18.3381 15.3209 19.8115C15.3209 21.2848 15.7132 22.4619 16.498 23.3426C17.2827 24.2234 18.3076 24.6638 19.5727 24.6638C20.3574 24.6638 21.0541 24.4797 21.6626 24.1113C22.2872 23.743 22.7676 23.2065 23.1039 22.5019H27.62C27.1396 24.3275 26.1867 25.7688 24.7614 26.8258C23.3361 27.8667 21.6226 28.3872 19.6208 28.3872C17.9873 28.3872 16.522 28.0269 15.2248 27.3062C13.9437 26.5696 12.9427 25.5526 12.2221 24.2555C11.5014 22.9583 11.1411 21.477 11.1411 19.8115ZM29.3188 21.541C29.3188 20.1638 29.575 18.9547 30.0875 17.9137C30.6159 16.8728 31.3286 16.0721 32.2254 15.5116C33.1222 14.9511 34.1231 14.6708 35.2281 14.6708C36.173 14.6708 36.9977 14.863 37.7023 15.2473C38.423 15.6317 38.9755 16.1361 39.3598 16.7607V14.863H43.4675V28.2671H39.3598V26.3694C38.9595 26.9939 38.399 27.4984 37.6783 27.8827C36.9737 28.2671 36.1489 28.4593 35.2041 28.4593C34.1151 28.4593 33.1222 28.179 32.2254 27.6185C31.3286 27.042 30.6159 26.2333 30.0875 25.1923C29.575 24.1354 29.3188 22.9183 29.3188 21.541ZM39.3598 21.565C39.3598 20.5401 39.0716 19.7314 38.4951 19.1389C37.9346 18.5463 37.2459 18.25 36.4292 18.25C35.6125 18.25 34.9158 18.5463 34.3393 19.1389C33.7788 19.7154 33.4986 20.5161 33.4986 21.541C33.4986 22.5659 33.7788 23.3827 34.3393 23.9912C34.9158 24.5838 35.6125 24.88 36.4292 24.88C37.2459 24.88 37.9346 24.5838 38.4951 23.9912C39.0716 23.3987 39.3598 22.59 39.3598 21.565ZM51.8922 28.4593C50.7232 28.4593 49.6822 28.2591 48.7694 27.8587C47.8566 27.4584 47.1359 26.9139 46.6074 26.2252C46.079 25.5206 45.7827 24.7359 45.7186 23.8711H49.7783C49.8263 24.3355 50.0425 24.7119 50.4269 25.0001C50.8112 25.2884 51.2837 25.4325 51.8442 25.4325C52.3566 25.4325 52.749 25.3364 53.0212 25.1443C53.3095 24.9361 53.4536 24.6718 53.4536 24.3516C53.4536 23.9672 53.2534 23.687 52.8531 23.5108C52.4527 23.3186 51.8041 23.1104 50.9073 22.8862C49.9465 22.662 49.1457 22.4298 48.5052 22.1896C47.8646 21.9334 47.3121 21.541 46.8477 21.0125C46.3832 20.4681 46.151 19.7394 46.151 18.8266C46.151 18.0579 46.3592 17.3612 46.7756 16.7367C47.208 16.0961 47.8325 15.5916 48.6493 15.2233C49.482 14.855 50.4669 14.6708 51.604 14.6708C53.2855 14.6708 54.6067 15.0872 55.5675 15.9199C56.5444 16.7527 57.1049 17.8577 57.249 19.2349H53.4536C53.3896 18.7705 53.1814 18.4022 52.8291 18.1299C52.4928 17.8577 52.0444 17.7216 51.4838 17.7216C51.0034 17.7216 50.6351 17.8177 50.3788 18.0098C50.1226 18.186 49.9945 18.4342 49.9945 18.7545C49.9945 19.1389 50.1947 19.4271 50.595 19.6193C51.0114 19.8115 51.652 20.0036 52.5168 20.1958C53.5097 20.452 54.3184 20.7083 54.943 20.9645C55.5675 21.2047 56.112 21.6051 56.5764 22.1656C57.0569 22.7101 57.3051 23.4467 57.3211 24.3756C57.3211 25.1603 57.0969 25.8649 56.6485 26.4895C56.2161 27.098 55.5835 27.5785 54.7508 27.9308C53.9341 28.2831 52.9812 28.4593 51.8922 28.4593ZM68.0736 14.7189C69.611 14.7189 70.8441 15.2313 71.773 16.2563C72.7018 17.2652 73.1662 18.6584 73.1662 20.436V28.2671H69.0825V20.9885C69.0825 20.0917 68.8503 19.3951 68.3859 18.8986C67.9215 18.4022 67.2969 18.154 66.5122 18.154C65.7275 18.154 65.1029 18.4022 64.6385 18.8986C64.1741 19.3951 63.9419 20.0917 63.9419 20.9885V28.2671H59.8342V10.491H63.9419V16.6646C64.3583 16.0721 64.9268 15.5997 65.6474 15.2473C66.3681 14.895 67.1768 14.7189 68.0736 14.7189Z" fill="white"/>
</svg>
