<svg width="61" height="49" viewBox="0 0 61 49" fill="none" xmlns="http://www.w3.org/2000/svg">
<path fill-rule="evenodd" clip-rule="evenodd" d="M0.0585938 12.144C0.0585938 8.82732 3.41949 6.1386 7.56537 6.1386H52.606C56.7519 6.1386 60.1128 8.82732 60.1128 12.144V36.1657C60.1128 39.4824 56.7519 42.1711 52.606 42.1711H7.56537C3.41949 42.1711 0.0585938 39.4824 0.0585938 36.1657V12.144ZM7.56537 10.1422C6.18341 10.1422 5.06311 11.0385 5.06311 12.144V36.1657C5.06311 37.2713 6.18341 38.1675 7.56537 38.1675H52.606C53.988 38.1675 55.1083 37.2713 55.1083 36.1657V12.144C55.1083 11.0385 53.988 10.1422 52.606 10.1422H7.56537Z" fill="#43537B"/>
<path fill-rule="evenodd" clip-rule="evenodd" d="M0.0585938 20.1512C0.0585938 19.0457 1.17889 18.1494 2.56085 18.1494H57.6105C58.9925 18.1494 60.1128 19.0457 60.1128 20.1512C60.1128 21.2568 58.9925 22.1531 57.6105 22.1531H2.56085C1.17889 22.1531 0.0585938 21.2568 0.0585938 20.1512Z" fill="#43537B"/>
</svg>
