<svg width="46" height="24" viewBox="0 0 46 24" fill="none" xmlns="http://www.w3.org/2000/svg">
<path d="M0.851562 12.929C0.851562 13.4197 1.24785 13.8168 1.7375 13.8168H6.38483L5.26204 19.6648C5.21276 19.924 5.28105 20.1936 5.44889 20.3974C5.61764 20.602 5.86849 20.7199 6.13236 20.7199H9.81888C10.2096 22.1245 11.484 23.1639 13.0085 23.1639C14.5329 23.1639 15.8074 22.1245 16.1981 20.7199H29.8788C29.8842 20.72 29.8888 20.7233 29.8942 20.7233H33.1958C33.5878 22.1262 34.8613 23.1639 36.3844 23.1639C37.9076 23.1639 39.1811 22.1262 39.573 20.7233H42.8747C43.2995 20.7233 43.6646 20.4217 43.745 20.0029L45.131 12.7843C45.1664 12.5961 45.1413 12.401 45.0574 12.2285L41.5865 5.08268C41.4377 4.77746 41.1288 4.58329 40.7897 4.58329H33.7216L34.213 2.02388C34.2622 1.76467 34.1939 1.49501 34.0261 1.29125C33.8574 1.08665 33.6065 0.96875 33.3426 0.96875H9.5834C9.15859 0.96875 8.79355 1.27051 8.71309 1.68924L7.90404 5.90463H6.36595C5.8763 5.90463 5.48008 6.3017 5.48008 6.79241C5.48008 7.28311 5.8763 7.68019 6.36595 7.68019H13.0085C13.4981 7.68019 13.8944 7.28311 13.8944 6.79241C13.8944 6.3017 13.4981 5.90463 13.0085 5.90463H9.70885L10.3153 2.74438H32.2699L29.1597 18.9443H16.1981C15.8074 17.5396 14.5329 16.5002 13.0085 16.5002C11.484 16.5002 10.2096 17.5396 9.81888 18.9443H7.20514L8.18978 13.8168H8.38001C8.86966 13.8168 9.26589 13.4197 9.26589 12.929C9.26589 12.4383 8.86966 12.0412 8.38001 12.0412H1.7375C1.24785 12.0412 0.851562 12.4383 0.851562 12.929ZM36.3844 21.3884C35.5279 21.3884 34.8315 20.6904 34.8315 19.8321C34.8315 18.9737 35.5279 18.2758 36.3844 18.2758C37.2409 18.2758 37.9374 18.9737 37.9374 19.8321C37.9374 20.6904 37.2409 21.3884 36.3844 21.3884ZM42.1428 18.9477H39.5752C39.1857 17.5414 37.9102 16.5002 36.3844 16.5002C34.8587 16.5002 33.5832 17.5414 33.1937 18.9477H30.967L33.3833 6.35892H35.668L34.1904 14.057C34.1411 14.3171 34.2095 14.5859 34.3773 14.7896C34.546 14.9942 34.7969 15.1121 35.0608 15.1121H42.8793L42.1428 18.9477ZM43.335 12.7392L43.2202 13.3365H36.1335L37.4729 6.35892H40.236L43.335 12.7392ZM13.0085 18.2758C13.865 18.2758 14.5614 18.9737 14.5614 19.8321C14.5614 20.6904 13.865 21.3884 13.0085 21.3884C12.152 21.3884 11.4555 20.6904 11.4555 19.8321C11.4555 18.9737 12.152 18.2758 13.0085 18.2758Z" fill="#31395F"/>
</svg>
