<?xml version="1.0" standalone="no"?>
<!DOCTYPE svg PUBLIC "-//W3C//DTD SVG 20010904//EN"
 "http://www.w3.org/TR/2001/REC-SVG-20010904/DTD/svg10.dtd">
<svg version="1.0" xmlns="http://www.w3.org/2000/svg"
 width="116.000000pt" height="111.000000pt" viewBox="0 0 116.000000 111.000000"
 preserveAspectRatio="xMidYMid meet">

<g transform="translate(0.000000,111.000000) scale(0.100000,-0.100000)"
fill="#000000" stroke="none">
<path d="M456 855 c-165 -19 -202 -26 -213 -41 -10 -14 -13 -72 -13 -245 0
-224 0 -228 22 -243 19 -14 64 -16 294 -16 250 0 272 1 287 18 15 16 17 47 17
219 0 165 -3 203 -15 213 -12 10 -69 10 -275 0 -143 -7 -267 -9 -277 -6 -44
17 18 29 203 37 255 12 264 14 264 42 0 54 -7 54 -294 22z m284 -285 c11 -11
20 -29 20 -40 0 -26 -34 -60 -62 -60 -31 0 -58 28 -58 61 0 55 60 79 100 39z"/>
<path d="M674 545 c-8 -21 2 -45 19 -45 8 0 20 7 27 15 10 12 10 18 0 30 -7 8
-19 15 -27 15 -7 0 -16 -7 -19 -15z"/>
</g>
</svg>
