<svg width="36" height="38" viewBox="0 0 36 38" fill="none" xmlns="http://www.w3.org/2000/svg">
    <path d="M6.02344 21.3412L6.02344 2.00001" stroke="black" stroke-width="3"
        stroke-miterlimit="10" stroke-linecap="round" stroke-linejoin="round" />
    <path
        d="M30.0235 7.22352C32.2588 7.22352 34.0471 8.91763 34.0471 11.0353C34.0471 13.1529 32.2588 14.847 30.0235 14.847C27.7882 14.847 26 13.1529 26 11.0353C26 9.05881 27.7882 7.22352 30.0235 7.22352Z"
        stroke="black" stroke-width="3" stroke-miterlimit="10" stroke-linecap="round"
        stroke-linejoin="round" />
    <path d="M30.0234 15.1293L30.0234 35.8822" stroke="black" stroke-width="3"
        stroke-miterlimit="10" stroke-linecap="round" stroke-linejoin="round" />
    <path d="M30.0234 1.99998L30.0234 7.22351" stroke="black" stroke-width="3"
        stroke-miterlimit="10" stroke-linecap="round" stroke-linejoin="round" />
    <path
        d="M6.02353 29.2472C3.78824 29.2472 2 27.5531 2 25.4354C2 23.1766 3.78824 21.4825 6.02353 21.4825C8.25882 21.4825 10.0471 23.1766 10.0471 25.2943C10.0471 27.4119 8.25882 29.2472 6.02353 29.2472Z"
        stroke="black" stroke-width="3" stroke-miterlimit="10" stroke-linecap="round"
        stroke-linejoin="round" />
    <path d="M6.02344 35.8823L6.02344 29.247" stroke="black" stroke-width="3" stroke-miterlimit="10"
        stroke-linecap="round" stroke-linejoin="round" />
</svg>
