<svg width="253" height="28" viewBox="0 0 253 28" fill="none" xmlns="http://www.w3.org/2000/svg">
    <path
        d="M9.78428 25.0109C8.6544 25.0109 7.59665 24.7946 6.61101 24.3619C5.62537 23.9291 4.75994 23.3522 4.0147 22.6069C3.24542 21.8617 2.64443 20.9722 2.21171 19.9866C1.80303 19.001 1.58667 17.9432 1.58667 16.8133C1.58667 15.6835 1.80303 14.6017 2.23575 13.616C2.66847 12.6304 3.24542 11.7409 3.99066 11.0197C4.7359 10.2745 5.60133 9.69752 6.58697 9.2648C7.57261 8.83208 8.63036 8.61572 9.76024 8.61572H21.9965C23.1264 8.61572 24.2082 8.83208 25.1939 9.2648C26.1795 9.69752 27.069 10.2745 27.8142 11.0197C28.5594 11.765 29.1604 12.6304 29.5691 13.616C30.0018 14.6017 30.2182 15.6835 30.2182 16.8133C30.2182 17.9432 30.0018 19.001 29.5691 19.9866C29.1364 20.9722 28.5594 21.8377 27.8142 22.5829C27.069 23.3281 26.2035 23.9291 25.1939 24.3378C24.2082 24.7705 23.1264 24.9869 21.9965 24.9869H9.78428V25.0109ZM21.9965 21.429C22.6456 21.429 23.2226 21.3088 23.7995 21.0684C24.3525 20.828 24.8573 20.4914 25.266 20.0828C25.6747 19.6741 26.0112 19.1692 26.2516 18.6163C26.492 18.0634 26.6122 17.4624 26.6122 16.8133C26.6122 16.1643 26.492 15.5873 26.2516 15.0103C26.0112 14.4574 25.6747 13.9526 25.266 13.5439C24.8573 13.1352 24.3525 12.7987 23.7995 12.5583C23.2466 12.3179 22.6456 12.1977 21.9965 12.1977H9.78428C9.1352 12.1977 8.55824 12.3179 7.98128 12.5583C7.42837 12.7987 6.92353 13.1352 6.51485 13.5439C6.10617 13.9526 5.76961 14.4574 5.52921 15.0103C5.28882 15.5633 5.16862 16.1643 5.16862 16.8133C5.16862 17.4624 5.28882 18.0394 5.52921 18.6163C5.76961 19.1692 6.10617 19.6741 6.51485 20.0828C6.92353 20.4914 7.42837 20.828 7.98128 21.0684C8.5342 21.3088 9.1352 21.429 9.78428 21.429H21.9965Z"
        fill="black" />
    <path
        d="M32.4781 12.1977V8.61572H55.4362C55.7246 8.61572 55.965 8.68784 56.1574 8.85612C56.3497 9.0244 56.4939 9.21672 56.566 9.43308C56.6382 9.67348 56.6382 9.88984 56.566 10.1543C56.4939 10.3947 56.3497 10.611 56.1093 10.7553C53.561 12.5342 51.0128 14.2891 48.4886 16.0681C45.9644 17.823 43.4402 19.602 40.868 21.405H56.3497V24.9869H33.2714C32.9829 24.9869 32.7425 24.9148 32.5502 24.7465C32.3579 24.5782 32.2136 24.3859 32.1415 24.1695C32.0694 23.9291 32.0694 23.7128 32.1415 23.4483C32.2136 23.2079 32.3579 22.9916 32.5983 22.8473C35.1465 21.0684 37.6947 19.3135 40.2189 17.5345C42.7431 15.7796 45.2673 14.0007 47.8395 12.1977H32.4781Z"
        fill="black" />
    <path
        d="M66.6868 25.0108C65.5569 25.0108 64.4991 24.7945 63.5135 24.3617C62.5279 23.929 61.6624 23.3521 60.9172 22.6068C60.1719 21.8616 59.5709 20.9962 59.1623 20.0105C58.7295 19.0249 58.5132 17.9671 58.5132 16.8373C58.5132 15.7074 58.7295 14.6256 59.1623 13.6399C59.595 12.6543 60.1719 11.7648 60.9172 11.0436C61.6624 10.2984 62.5279 9.72144 63.5135 9.28873C64.4991 8.85601 65.5569 8.63965 66.6868 8.63965H78.9231C80.0529 8.63965 81.1347 8.85601 82.1204 9.28873C83.106 9.72144 83.9955 10.2984 84.7407 11.0436C85.486 11.7889 86.087 12.6543 86.4956 13.6399C86.9284 14.6256 87.1447 15.7074 87.1447 16.8373C87.1447 17.9671 86.9284 19.0249 86.4956 20.0105C86.0629 20.9962 85.486 21.8616 84.7407 22.6068C83.9955 23.3521 83.13 23.9531 82.1204 24.3617C81.1347 24.7945 80.0529 25.0108 78.9231 25.0108H66.6868ZM78.899 21.4289C79.5481 21.4289 80.1251 21.3087 80.702 21.0683C81.2549 20.8279 81.7598 20.4913 82.1684 20.0826C82.5771 19.674 82.9137 19.1691 83.1541 18.6162C83.3945 18.0633 83.5147 17.4623 83.5147 16.8132C83.5147 16.1641 83.3945 15.5872 83.1541 15.0102C82.9137 14.4573 82.5771 13.9525 82.1684 13.5438C81.7598 13.1351 81.2549 12.7986 80.702 12.5582C80.1491 12.3178 79.5481 12.1976 78.899 12.1976H66.6627C66.0136 12.1976 65.4367 12.3178 64.8597 12.5582C64.3068 12.7986 63.802 13.1351 63.3933 13.5438C62.9846 13.9525 62.6481 14.4573 62.4077 15.0102C62.1673 15.5631 62.0471 16.1641 62.0471 16.8132C62.0471 17.4623 62.1673 18.0393 62.4077 18.6162C62.6481 19.1691 62.9846 19.674 63.3933 20.0826C63.802 20.4913 64.3068 20.8279 64.8597 21.0683C65.4126 21.3087 66.0136 21.4289 66.6627 21.4289H78.899Z"
        fill="black" />
    <path
        d="M111.089 8.61565V22.9915C111.089 23.4964 110.968 23.9291 110.704 24.2897C110.439 24.6503 110.127 24.9387 109.742 25.1311C109.358 25.3234 108.925 25.3955 108.468 25.3715C108.011 25.3474 107.579 25.1551 107.218 24.8426L92.6019 13.039V24.9868H89.0439V10.635C89.0439 10.1302 89.1641 9.69745 89.4286 9.31281C89.693 8.92817 90.0055 8.66373 90.3902 8.47141C90.7748 8.30313 91.2075 8.20697 91.6403 8.25505C92.097 8.27909 92.5057 8.47141 92.8903 8.78393L107.531 20.5635V8.61565H111.089Z"
        fill="black" />
    <path
        d="M137.268 21.4291V25.0111H118.853C118.036 25.0111 117.267 24.8668 116.546 24.5543C115.824 24.2418 115.199 23.8331 114.67 23.3042C114.142 22.7753 113.733 22.1503 113.42 21.4291C113.108 20.7079 112.964 19.9386 112.964 19.1213V14.5056C112.964 13.6883 113.108 12.919 113.42 12.1978C113.733 11.4766 114.142 10.8515 114.67 10.3227C115.199 9.79379 115.824 9.36107 116.546 9.04855C117.267 8.73604 118.036 8.5918 118.853 8.5918L137.268 8.61584V12.1978H118.853C118.204 12.1978 117.675 12.4141 117.219 12.8709C116.762 13.3277 116.546 13.8565 116.546 14.5056V14.9864H136.162V18.5924H116.546V19.0972C116.546 19.7463 116.762 20.2752 117.219 20.7319C117.675 21.1887 118.204 21.4051 118.853 21.4051H137.268V21.4291Z"
        fill="black" />
    <path d="M153.687 24.8427H144.432V8.39941H146.427V22.8474H153.687V24.8427Z" fill="black" />
    <path
        d="M154.024 16.6449C154.024 12.1975 157.269 8.23096 162.125 8.23096C166.453 8.23096 170.227 11.7408 170.227 16.6449C170.227 20.9961 167.005 25.0108 162.125 25.0108C157.293 25.0108 154.024 20.9961 154.024 16.6449ZM156.019 16.6449C156.019 20.1788 158.592 23.0395 162.125 23.0395C165.635 23.0395 168.207 20.1788 168.207 16.6449C168.207 13.1111 165.587 10.2022 162.125 10.2022C158.592 10.2022 156.019 13.1111 156.019 16.6449Z"
        fill="black" />
    <path
        d="M184.386 24.8427L175.275 11.5486V24.8427H173.28V8.39941H175.588L184.675 21.6935V8.39941H186.67V24.8427H184.386Z"
        fill="black" />
    <path
        d="M190.661 24.8427V8.39941H196.118C200.974 8.39941 204.075 11.789 204.075 16.6451C204.075 21.2367 200.974 24.8427 196.118 24.8427H190.661ZM192.656 22.8474H196.118C199.531 22.8474 202.056 20.1309 202.056 16.6451C202.056 13.2074 199.531 10.3947 196.118 10.3947H192.656V22.8474Z"
        fill="black" />
    <path
        d="M206.19 16.6449C206.19 12.1975 209.436 8.23096 214.292 8.23096C218.619 8.23096 222.393 11.7408 222.393 16.6449C222.393 20.9961 219.172 25.0108 214.292 25.0108C209.436 25.0108 206.19 20.9961 206.19 16.6449ZM208.186 16.6449C208.186 20.1788 210.758 23.0395 214.292 23.0395C217.802 23.0395 220.374 20.1788 220.374 16.6449C220.374 13.1111 217.754 10.2022 214.292 10.2022C210.734 10.2022 208.186 13.1111 208.186 16.6449Z"
        fill="black" />
    <path
        d="M236.553 24.8427L227.442 11.5486V24.8427H225.446V8.39941H227.754L236.841 21.6935V8.39941H238.837V24.8427H236.553Z"
        fill="black" />
    <path
        d="M246 14C245.011 14 244.045 13.7067 243.222 13.1573C242.4 12.6079 241.759 11.8271 241.381 10.9134C241.002 9.99979 240.903 8.99445 241.096 8.02455C241.289 7.05465 241.765 6.16373 242.465 5.46447C243.164 4.76521 244.055 4.289 245.025 4.09608C245.995 3.90315 247 4.00217 247.913 4.3806C248.827 4.75904 249.608 5.39991 250.157 6.22215C250.707 7.04439 251 8.01109 251 9C250.999 10.3256 250.471 11.5965 249.534 12.5339C248.597 13.4712 247.325 13.9985 246 14ZM246 4.76923C245.163 4.76923 244.345 5.01736 243.649 5.48225C242.954 5.94713 242.411 6.60789 242.091 7.38095C241.771 8.15403 241.687 9.00469 241.851 9.82539C242.014 10.6461 242.417 11.3999 243.009 11.9916C243.6 12.5833 244.354 12.9862 245.175 13.1495C245.995 13.3127 246.846 13.2289 247.619 12.9087C248.392 12.5885 249.053 12.0463 249.518 11.3505C249.983 10.6547 250.231 9.83677 250.231 9C250.229 7.87834 249.783 6.80299 248.99 6.00986C248.197 5.21672 247.121 4.77055 246 4.76923Z"
        fill="black" />
    <path
        d="M244.846 11.3076C244.744 11.3076 244.646 11.2671 244.574 11.195C244.502 11.1229 244.461 11.025 244.461 10.923V7.07688C244.461 6.97487 244.502 6.87705 244.574 6.80491C244.646 6.73279 244.744 6.69226 244.846 6.69226H246C246.408 6.69226 246.799 6.85435 247.088 7.14287C247.376 7.43139 247.538 7.8227 247.538 8.23073C247.538 8.63875 247.376 9.03006 247.088 9.31858C246.799 9.6071 246.408 9.76919 246 9.76919H245.23V10.923C245.23 11.025 245.19 11.1229 245.118 11.195C245.046 11.2671 244.948 11.3076 244.846 11.3076ZM245.23 8.99995H246C246.204 8.99995 246.4 8.91891 246.544 8.77465C246.688 8.63039 246.769 8.43473 246.769 8.23073C246.769 8.02671 246.688 7.83105 246.544 7.68679C246.4 7.54254 246.204 7.46149 246 7.46149H245.23V8.99995Z"
        fill="black" />
    <path
        d="M245.693 9.61588C245.631 9.53427 245.605 9.4317 245.619 9.33071C245.634 9.22973 245.688 9.13862 245.769 9.07742C245.851 9.01621 245.953 8.98993 246.055 9.00436C246.155 9.01878 246.247 9.07273 246.308 9.15434L247.462 10.6928C247.492 10.7332 247.514 10.7792 247.527 10.8281C247.539 10.877 247.542 10.928 247.535 10.978C247.527 11.028 247.511 11.0761 247.485 11.1195C247.459 11.163 247.425 11.201 247.385 11.2312C247.345 11.2616 247.299 11.2836 247.249 11.2962C247.201 11.3087 247.149 11.3114 247.099 11.3043C247.049 11.2972 247.001 11.2802 246.958 11.2545C246.915 11.2288 246.877 11.1948 246.846 11.1544L245.693 9.61588Z"
        fill="black" />
</svg>
