<?xml version="1.0" standalone="no"?>
<!DOCTYPE svg PUBLIC "-//W3C//DTD SVG 20010904//EN"
 "http://www.w3.org/TR/2001/REC-SVG-20010904/DTD/svg10.dtd">
<svg version="1.0" xmlns="http://www.w3.org/2000/svg"
 width="125.000000pt" height="109.000000pt" viewBox="0 0 125.000000 109.000000"
 preserveAspectRatio="xMidYMid meet">

<g transform="translate(0.000000,109.000000) scale(0.100000,-0.100000)"
fill="#000000" stroke="none">
<path d="M252 850 c-21 -9 -23 -15 -20 -67 3 -57 3 -58 36 -61 l32 -3 0 -189
c0 -104 3 -195 6 -204 5 -14 39 -16 273 -16 194 0 270 3 279 12 9 9 12 68 12
204 l0 193 33 3 32 3 0 65 0 65 -330 2 c-185 1 -340 -2 -353 -7z m445 -251 c6
-6 9 -18 6 -25 -4 -11 -31 -14 -118 -14 -114 0 -133 6 -121 35 4 12 28 15 114
15 66 0 112 -4 119 -11z"/>
</g>
</svg>
