<?xml version="1.0" standalone="no"?>
<!DOCTYPE svg PUBLIC "-//W3C//DTD SVG 20010904//EN"
 "http://www.w3.org/TR/2001/REC-SVG-20010904/DTD/svg10.dtd">
<svg version="1.0" xmlns="http://www.w3.org/2000/svg"
 width="137.000000pt" height="116.000000pt" viewBox="0 0 137.000000 116.000000"
 preserveAspectRatio="xMidYMid meet">

<g transform="translate(0.000000,116.000000) scale(0.100000,-0.100000)"
fill="#000000" stroke="none">
<path d="M593 874 c-40 -31 -70 -60 -67 -65 3 -5 122 -9 265 -9 201 0 259 3
259 13 -1 6 -32 36 -70 65 l-68 52 -124 0 -123 0 -72 -56z"/>
<path d="M365 818 c-102 -56 -156 -186 -125 -299 12 -43 71 -114 113 -136 29
-14 30 -16 12 -29 -10 -7 -23 -15 -28 -17 -6 -2 -8 -11 -4 -20 6 -16 13 -14
67 13 33 17 60 35 60 40 0 5 -12 34 -27 65 -38 77 -71 71 -38 -7 11 -27 -18
-23 -55 8 -46 39 -70 94 -70 159 0 84 39 148 113 186 38 20 50 49 20 49 -10 0
-27 -6 -38 -12z"/>
<path d="M510 590 c0 -147 2 -162 20 -180 19 -19 33 -20 258 -20 190 0 242 3
258 14 17 13 19 28 19 178 l0 163 -277 3 -278 2 0 -160z m380 -80 c0 -19 -7
-20 -99 -20 -95 0 -120 7 -106 30 3 6 50 10 106 10 92 0 99 -1 99 -20z"/>
</g>
</svg>
