<svg width="87" height="28" viewBox="0 0 87 28" fill="none" xmlns="http://www.w3.org/2000/svg">
<path d="M25.1612 0.202545L18.3317 18.5623L17.6129 14.9623L15.4562 3.80249C14.7373 1.64252 13.2995 0.202545 10.7834 0.202545H0V0.56254C2.87557 1.28253 5.75114 2.36251 8.26726 4.16249L14.3778 27.2021H21.5668L32.3501 0.202545H25.1612Z" fill="#0D3491"/>
<path d="M35.2284 0.202545L30.915 27.2021H37.7445L42.0579 0.202545H35.2284Z" fill="#0D3491"/>
<path d="M80.515 0.202545H75.4828C73.6855 0.202545 72.6072 0.56254 71.8883 2.36251L61.4644 27.2021H68.6533L70.81 21.8022H79.0772L80.1555 27.2021H86.2661L80.515 0.202545ZM72.6072 16.4023L75.4828 7.76243L77.6394 16.4023C77.6394 16.4023 74.045 16.4023 72.6072 16.4023Z" fill="#0D3491"/>
<path d="M56.0736 11.3627C53.5574 10.2827 52.1197 9.20271 52.1197 8.12273C52.1197 7.04274 53.198 5.96276 56.0736 5.96276C58.2302 5.96276 60.0275 6.32275 61.1058 7.04274L61.8247 7.40274L62.903 1.64282C61.4653 1.28283 59.3086 0.562836 56.7925 0.562836C49.963 0.562836 45.2902 4.16278 45.2902 9.20271C45.2902 12.8027 48.8846 14.9626 51.4008 16.4026C53.9169 17.8426 54.9952 18.5626 54.9952 19.6426C54.9952 21.4425 52.8386 22.1625 50.6819 22.1625C47.8063 22.1625 46.3685 21.8025 44.2119 20.7225L43.1335 20.0026L42.0552 25.7625C43.8524 26.4825 46.728 27.2024 49.6035 27.2024C56.7925 27.2024 61.4653 23.6025 61.8247 18.2026C61.8247 15.3226 60.0275 13.1627 56.0736 11.3627Z" fill="#0D3491"/>
</svg>
